HIERARCHY
ROOT Spine
{
    OFFSET 0.0 0.0 -0.0
    CHANNELS 6 Xposition Yposition Zposition Zrotation Xrotation Yrotation
    JOINT ShoulderCenter
    {
        OFFSET 0.0 34.1893310546875 0.0
        CHANNELS 3 Zrotation Xrotation Yrotation
        JOINT LeftShoulder
        {
            OFFSET 21.03016471862793 0.0 0.0
            CHANNELS 3 Zrotation Xrotation Yrotation
            JOINT LeftElbow
            {
                OFFSET 28.253284454345703 0.0 0.0
                CHANNELS 3 Zrotation Xrotation Yrotation
                JOINT LeftHand
                {
                    OFFSET 33.8045539855957 0.0 0.0
                    CHANNELS 3 Zrotation Xrotation Yrotation
                    End Site
                    {
                        OFFSET 13.521820068359375 0.0 0.0
                    }
                }
            }
        }
        JOINT RightShoulder
        {
            OFFSET -21.03016471862793 0.0 0.0
            CHANNELS 3 Zrotation Xrotation Yrotation
            JOINT RightElbow
            {
                OFFSET -28.253284454345703 0.0 0.0
                CHANNELS 3 Zrotation Xrotation Yrotation
                JOINT RightHand
                {
                    OFFSET -33.8045539855957 0.0 0.0
                    CHANNELS 3 Zrotation Xrotation Yrotation
                    End Site
                    {
                        OFFSET -13.521820068359375 0.0 0.0
                    }
                }
            }
        }
        End Site
        {
            OFFSET 0.0 13.675732612609863 0.0
        }
    }
    JOINT LeftHip
    {
        OFFSET 17.35537089322694 -17.35537089322694 0.0
        CHANNELS 3 Zrotation Xrotation Yrotation
        JOINT LeftKnee
        {
            OFFSET 0.0 -39.73896789550781 0.0
            CHANNELS 3 Zrotation Xrotation Yrotation
            JOINT LeftFoot
            {
                OFFSET 0.0 -46.0120735168457 0.0
                CHANNELS 3 Zrotation Xrotation Yrotation
                End Site
                {
                    OFFSET 0.0 0.0 18.404829025268555
                }
            }
        }
    }
    JOINT RightHip
    {
        OFFSET -17.35537089322694 -17.35537089322694 0.0
        CHANNELS 3 Zrotation Xrotation Yrotation
        JOINT RightKnee
        {
            OFFSET 0.0 -39.73896789550781 0.0
            CHANNELS 3 Zrotation Xrotation Yrotation
            JOINT RightFoot
            {
                OFFSET 0.0 -46.0120735168457 0.0
                CHANNELS 3 Zrotation Xrotation Yrotation
                End Site
                {
                    OFFSET 0.0 0.0 18.404829025268555
                }
            }
        }
    }
}
MOTION
Frames: 10
Frame Time: 0.03333333333333333
-54.10000228881836 12.899999618530273 -92.5 2.854026284963168 -0.16781124564256522 93.91392895928144 -7.404072296951823e-08 -1.9778633444214515e-07 -4.288693499042998 97.4573990634349 -33.4435282653808 164.12128969308407 2.588101522036831e-06 4.131069976653642e-06 91.40763787483696 1.5902773407317584e-15 6.3611093629270335e-15 1.5902773407317584e-15 -91.53263050004544 -23.399431940742936 -161.35676906025304 8.285252857288282e-08 -3.3757390204952396e-06 -90.1263475627053 0.0 6.361109362927035e-15 0.0 5.6319853646603635 -0.05751866635985309 -33.84935819388239 -2.118627527778691 9.287200277846432 -20.20078190894639 0.0 0.0 -1.8387581752210955e-15 -4.5970075974925 12.895636688189573 48.156311335900824 -11.79036839677555 -4.775688511860627 -12.267988442497586 -7.951386703658792e-16 -4.965644585306429e-32 7.156248033292914e-15
-54.400001525878906 13.0 -92.5 2.1832317108168176 -0.16789795744591549 93.61537720489429 1.0497149397392441e-07 -1.0937534105165313e-08 -3.5558767449054858 98.3601420103581 -33.34109006266324 165.5590747932028 4.030365119614065e-06 -1.063560443958818e-06 92.37412730614346 1.5902773407317584e-15 -6.361109362927033e-15 1.5902773407317584e-15 -91.65939577708018 -22.56282690260834 -161.84981773556055 -6.910176539457477e-06 4.213908171640701e-06 -90.85255748912695 3.1805546814635168e-15 2.2069531490250793e-32 7.951386703658792e-16 5.454884782116922 -0.8325515779944168 -32.46894719370356 -1.6871455475383053 9.301089727381967 -20.66994414884228 3.975693351829396e-16 9.827838241752306e-33 2.8326815131784447e-15 -4.7218807423838705 11.764999868565244 47.529833759049396 -11.46466461554343 -4.757669658487923 -12.514368003298651 1.1927080055488188e-15 -7.951386703658791e-16 6.80837486500784e-15
-54.5 13.09999942779541 -92.5 1.8476077577325893 -8.49390240378133e-08 93.58383521337677 9.013235910676314e-09 9.747646745874922e-08 -3.521065991468567 98.70279753907147 -32.72370055608774 166.8430387431329 7.558579008423123e-06 5.269467013788152e-06 93.36368066050417 1.5902773407317588e-15 2.2069531490250793e-32 1.5902773407317588e-15 -91.95701437692409 -22.073866588521618 -162.94176970212737 1.993916421986001e-06 4.1137629235460785e-06 -91.46483476635582 -3.1805546814635176e-15 4.4139062980501586e-32 -1.5902773407317588e-15 5.245665570931085 -1.2845768238512318 -30.42595686340318 -1.2311499284355985 9.12971922674476 -21.05493661101558 -1.1483053103521116e-31 1.5902773407317584e-15 8.27441178849493e-15 -4.769251134001914 11.285717814307226 46.10511597215827 -11.607000785812103 -5.061827954650857 -13.738918666781863 -6.551892161168204e-32 7.951386703658792e-16 9.442271710594815e-15
-54.70000076293945 13.199999809265137 -92.5999984741211 1.6797403672287559 0.3358922436861556 93.60740317973493 -2.8341707751641552e-08 2.1798864914745038e-08 -4.097671329531779 99.04263493185242 -31.219361182791086 168.99713524074457 -2.709727040418137e-06 4.4921530038624445e-06 93.53796736166008 0.0 0.0 0.0 -92.7744316237957 -21.857141207618707 -165.46586651303258 -2.2604597120135565e-06 -1.309154346186357e-07 -91.85374980666657 0.0 0.0 0.0 5.029336603169522 -1.5801172688719036 -29.98148302753173 -1.345939126727068 8.912344313703716 -21.02580912228608 0.0 0.0 -6.212020862233433e-16 -5.263869788592298 10.831171275838674 45.64141818340957 -11.327878676933937 -5.12526968531471 -14.061745140077347 1.1927080055488188e-15 7.951386703658792e-16 2.236327510404035e-15
-54.79999923706055 13.199999809265137 -92.5999984741211 1.8422155175609791 0.8371649939239876 93.885282094186 5.501795233183842e-08 -7.762318130020039e-08 -4.534707300444137 99.33535349025576 -30.434591783439142 171.78059005937854 -1.6611938313199991e-06 3.7022624333320193e-07 93.4780604108399 3.1805546814635164e-15 7.951386703658791e-16 -2.2069531490250793e-32 -94.10285424636922 -20.46977298855785 -168.70918586616818 1.9361544515962903e-06 2.390324946341972e-06 -92.55832984481592 1.5902773407317584e-15 -2.2069531490250793e-32 -1.5902773407317584e-15 4.386016327359905 -1.6869356450931434 -28.585108236433637 -0.9648867856455927 9.314420465245227 -22.17479501494001 1.1927080055488186e-15 -8.327799773274322e-32 -8.001082870556658e-15 -5.853832126429364 11.059296125451251 45.92123481622079 -11.387082111793884 -5.199130610179909 -14.465107653555833 -3.4483642953516864e-33 7.951386703658792e-16 4.969616689786745e-16
-54.900001525878906 13.300000190734863 -92.5999984741211 2.015436866009533 1.0074069543093087 93.60440492392908 9.06950360851433e-08 -4.1674309374186515e-08 -3.9896650743180526 101.2040862352888 -30.801683844473615 175.4709527657001 -6.242771711278828e-06 -2.0142276544150164e-06 93.53746899803025 -4.770832022195277e-15 -7.156248033292914e-15 -2.979386751183857e-31 -95.04117591978934 -19.0485744873932 -171.78545548261567 -9.789204137472592e-08 -1.1807029105252184e-06 -93.7451506266153 -1.5902773407317584e-15 0.0 0.0 4.231498864941722 -1.3348534911592715 -29.24075750169212 -0.994810481616273 9.033207449554466 -21.385218501047724 7.95138670365879e-16 -4.758742727585327e-32 -6.858071031905707e-15 -5.919908484032207 11.20670946641729 46.08329765886394 -11.640898160559177 -5.096784772828346 -14.392701475705728 -3.975693351829395e-16 -7.95138670365879e-16 -1.6399735076296255e-15
-55.0 13.300000190734863 -92.5999984741211 2.183244360527466 1.1751359933824863 93.60676212151797 -4.851442144154772e-08 1.980643558365689e-07 -3.8620465675798945 102.83852753112672 -30.693708516438882 179.38474642375107 -4.115597651986955e-06 -2.911182422244754e-07 93.33951935699292 1.5902773407317582e-15 7.156248033292912e-15 -9.931289170612858e-32 -96.59696013491434 -18.333571865395346 -175.43327496555548 1.6813095329604474e-06 -1.2839498712074446e-06 -95.07964669832589 1.5902773407317584e-15 2.2069531490250793e-32 1.5902773407317584e-15 4.065019216452764 -1.2968320584745783 -28.656207975842698 -1.0775632405010558 9.116519752924834 -21.35939446009233 0.0 0.0 2.708441095933776e-15 -6.239113037008504 11.244241497600695 46.489415465487596 -11.463113386999964 -5.040523733189681 -14.355732347289264 0.0 0.0 9.442271710594815e-15
-55.099998474121094 13.300000190734863 -92.5999984741211 2.5187184594110477 1.3426431960506613 93.34917202748129 2.6331797719585363e-07 -1.5632208269183422e-07 -3.754987689111829 103.81876463315025 -29.03564525453551 -177.01929686292218 -5.235804698210456e-06 -3.113717641429155e-06 93.51034973300109 -3.180554681463516e-15 8.827812596100317e-32 -3.180554681463516e-15 -98.32263875888003 -18.094763459378953 -179.94945070117845 1.6455591924892578e-07 -2.608287794160802e-06 -96.0281319929203 7.951386703658792e-16 -6.3611093629270335e-15 4.4139062980501586e-32 3.896480783890734 -1.3524706683478243 -27.697607771117852 -1.1197943856832975 9.800109915215868 -23.11647254561856 0.0 0.0 1.7890620083232284e-15 -6.301073166054839 11.406637118582806 45.70252823084656 -11.428554137549444 -5.133550467413297 -14.54682309141123 7.951386703658791e-16 2.517305935606731e-32 3.6278201835443235e-15
-55.29999542236328 13.300000190734863 -92.5 2.5261297038696076 1.3465830321961079 93.33681444174272 -6.416506349318032e-08 -3.069436983670481e-08 -3.181669372018079 105.1565825015834 -27.40334644699954 -172.26755751591003 -2.9349554172550855e-06 -4.7817524010775926e-08 93.03076449328682 3.531125038440127e-31 -6.361109362927033e-15 6.361109362927033e-15 -99.81626218116094 -16.744275435902026 175.10126298402713 8.158773744607806e-08 -1.0758115632898848e-07 -95.46794978479625 -7.951386703658794e-16 -6.3611093629270335e-15 -3.1805546814635168e-15 3.8846050800532717 -1.4830067072170459 -27.41006750480099 -1.1959645468456246 9.762734874737408 -22.553005642471184 -3.975693351829397e-16 -1.4908850069360234e-15 -6.3362612794781e-15 -6.480260376682228 11.2941972087097 46.858370713767485 -11.414959480893316 -5.030637879829296 -14.555579660149887 0.0 0.0 3.975693351829396e-16
-55.400001525878906 13.300000190734863 -92.5 2.6942819576293915 1.3464030975765306 93.04969859785163 8.823187245443404e-09 7.79557152634583e-08 -2.7508654081299295 106.55260387897408 -25.649443161691046 -167.11657880699664 -6.121242711930283e-07 -2.7540374227368046e-06 90.42092215390728 0.0 0.0 0.0 -101.12751560296626 -15.48577164248088 170.27453461929417 1.710734000253326e-06 3.823877688476367e-06 -93.18088512529165 -2.782985346280577e-15 0.0 0.0 3.905133781725216 -1.4455231435621023 -26.79725051808774 -1.2209736285156574 9.88173482400396 -22.845111700565123 3.975693351829397e-16 -9.939233379573492e-17 -3.056314264218849e-15 -6.373353361855905 11.254260671032885 46.102111686482175 -11.4688131454881 -4.99276130890179 -14.547535070458277 -3.975693351829396e-16 -7.58640144977371e-33 2.1866313435061676e-15
